<svg xmlns="http://www.w3.org/2000/svg" xmlns:xlink="http://www.w3.org/1999/xlink" width="128" zoomAndPan="magnify" viewBox="0 0 96 95.999999" height="128" preserveAspectRatio="xMidYMid meet" version="1.2"><defs><clipPath id="cae865f803"><path d="M 7 30 L 38 30 L 38 73 L 7 73 Z M 7 30 "/></clipPath><clipPath id="364cadff4e"><path d="M 52.730469 81.050781 L 10.109375 84.378906 L 5.90625 30.542969 L 48.527344 27.214844 Z M 52.730469 81.050781 "/></clipPath><clipPath id="9d585611f8"><path d="M 10.4375 84.351562 L 53.058594 81.023438 L 48.851562 27.1875 L 6.234375 30.515625 Z M 10.4375 84.351562 "/></clipPath><clipPath id="d06420a5dd"><path d="M 34 62 L 52 62 L 52 83 L 34 83 Z M 34 62 "/></clipPath><clipPath id="9854b66311"><path d="M 52.730469 81.050781 L 10.109375 84.378906 L 5.90625 30.542969 L 48.527344 27.214844 Z M 52.730469 81.050781 "/></clipPath><clipPath id="62ff4b613f"><path d="M 10.4375 84.351562 L 53.058594 81.023438 L 48.851562 27.1875 L 6.234375 30.515625 Z M 10.4375 84.351562 "/></clipPath><clipPath id="b39d98f096"><path d="M 35 65 L 50 65 L 50 76 L 35 76 Z M 35 65 "/></clipPath><clipPath id="d13e46b92d"><path d="M 52.730469 81.050781 L 10.109375 84.378906 L 5.90625 30.542969 L 48.527344 27.214844 Z M 52.730469 81.050781 "/></clipPath><clipPath id="704b22a20f"><path d="M 10.4375 84.351562 L 53.058594 81.023438 L 48.851562 27.1875 L 6.234375 30.515625 Z M 10.4375 84.351562 "/></clipPath><clipPath id="8034c6fc14"><path d="M 32 63 L 48 63 L 48 81 L 32 81 Z M 32 63 "/></clipPath><clipPath id="1857f5f8e6"><path d="M 52.730469 81.050781 L 10.109375 84.378906 L 5.90625 30.542969 L 48.527344 27.214844 Z M 52.730469 81.050781 "/></clipPath><clipPath id="f46788c6ea"><path d="M 10.4375 84.351562 L 53.058594 81.023438 L 48.851562 27.1875 L 6.234375 30.515625 Z M 10.4375 84.351562 "/></clipPath><clipPath id="d09d44c4eb"><path d="M 33 77 L 37 77 L 37 82 L 33 82 Z M 33 77 "/></clipPath><clipPath id="a85a05ce4b"><path d="M 52.730469 81.050781 L 10.109375 84.378906 L 5.90625 30.542969 L 48.527344 27.214844 Z M 52.730469 81.050781 "/></clipPath><clipPath id="7f264d5ebd"><path d="M 10.4375 84.351562 L 53.058594 81.023438 L 48.851562 27.1875 L 6.234375 30.515625 Z M 10.4375 84.351562 "/></clipPath><clipPath id="8110993d07"><path d="M 23 64 L 37 64 L 37 73 L 23 73 Z M 23 64 "/></clipPath><clipPath id="1e0b37ad2e"><path d="M 52.730469 81.050781 L 10.109375 84.378906 L 5.90625 30.542969 L 48.527344 27.214844 Z M 52.730469 81.050781 "/></clipPath><clipPath id="401d8f61b0"><path d="M 10.4375 84.351562 L 53.058594 81.023438 L 48.851562 27.1875 L 6.234375 30.515625 Z M 10.4375 84.351562 "/></clipPath><clipPath id="ab96080a81"><path d="M 9 33 L 36 33 L 36 71 L 9 71 Z M 9 33 "/></clipPath><clipPath id="2c1b3725ee"><path d="M 52.730469 81.050781 L 10.109375 84.378906 L 5.90625 30.542969 L 48.527344 27.214844 Z M 52.730469 81.050781 "/></clipPath><clipPath id="cddfcd1ca5"><path d="M 10.4375 84.351562 L 53.058594 81.023438 L 48.851562 27.1875 L 6.234375 30.515625 Z M 10.4375 84.351562 "/></clipPath><clipPath id="705a473309"><path d="M 35 21 L 40.449219 21 L 40.449219 40 L 35 40 Z M 35 21 "/></clipPath><clipPath id="0b6a8c06bc"><path d="M 2.199219 9.601562 L 40.449219 9.601562 L 40.449219 65.101562 L 2.199219 65.101562 Z M 2.199219 9.601562 "/></clipPath><clipPath id="643c72091e"><path d="M 2.199219 9.601562 L 16 9.601562 L 16 27 L 2.199219 27 Z M 2.199219 9.601562 "/></clipPath><clipPath id="db5f088c5e"><path d="M 39.09375 37.453125 L 94.59375 37.453125 L 94.59375 92.953125 L 39.09375 92.953125 Z M 39.09375 37.453125 "/></clipPath><clipPath id="108b78d4a9"><path d="M 39.09375 37.453125 L 53 37.453125 L 53 55 L 39.09375 55 Z M 39.09375 37.453125 "/></clipPath><clipPath id="8a8a59cb86"><path d="M 16 21 L 32 21 L 32 38.851562 L 16 38.851562 Z M 16 21 "/></clipPath><clipPath id="4309b96ae8"><path d="M 35 21 L 50 21 L 50 38.851562 L 35 38.851562 Z M 35 21 "/></clipPath><clipPath id="5a95fefa35"><path d="M 2.199219 9.601562 L 57.699219 9.601562 L 57.699219 38.851562 L 2.199219 38.851562 Z M 2.199219 9.601562 "/></clipPath><clipPath id="2a6a36467a"><path d="M 2.199219 9.601562 L 16 9.601562 L 16 27 L 2.199219 27 Z M 2.199219 9.601562 "/></clipPath></defs><g id="eacc3bf742"><rect x="0" width="96" y="0" height="95.999999" style="fill:#ffffff;fill-opacity:1;stroke:none;"/><rect x="0" width="96" y="0" height="95.999999" style="fill:#ffffff;fill-opacity:1;stroke:none;"/><g clip-rule="nonzero" clip-path="url(#cae865f803)"><g clip-rule="nonzero" clip-path="url(#364cadff4e)"><g clip-rule="nonzero" clip-path="url(#9d585611f8)"><path style=" stroke:none;fill-rule:nonzero;fill:#3d3aff;fill-opacity:1;" d="M 13.308594 30.734375 C 10.027344 34.378906 8.074219 38.910156 8.1875 43.855469 C 8.292969 48.464844 10.234375 52.847656 12.984375 56.484375 C 14.644531 58.679688 16.539062 60.28125 18.742188 61.867188 C 21.324219 63.722656 23.976562 65.484375 26.671875 67.167969 C 27.414062 67.632812 36.101562 73.125 36.679688 71.882812 C 36.863281 71.492188 37.464844 71.78125 37.28125 72.175781 C 36.695312 73.4375 34.132812 72.054688 33.382812 71.710938 C 30.648438 70.453125 28.066406 68.84375 25.527344 67.234375 C 20.761719 64.21875 15.714844 61.199219 12.265625 56.640625 C 9.441406 52.90625 7.625 48.355469 7.515625 43.648438 C 7.402344 38.648438 9.492188 33.972656 12.800781 30.300781 C 13.089844 29.980469 13.597656 30.414062 13.308594 30.734375 Z M 13.308594 30.734375 "/></g></g></g><g clip-rule="nonzero" clip-path="url(#d06420a5dd)"><g clip-rule="nonzero" clip-path="url(#9854b66311)"><g clip-rule="nonzero" clip-path="url(#62ff4b613f)"><path style=" stroke:none;fill-rule:nonzero;fill:#3d3aff;fill-opacity:1;" d="M 36.734375 72.503906 C 35.304688 75.425781 34.425781 78.695312 34.929688 81.957031 C 34.734375 81.890625 34.539062 81.828125 34.34375 81.765625 C 38.328125 76.277344 45.289062 75.101562 51.34375 73.167969 C 51.363281 73.382812 51.378906 73.597656 51.394531 73.8125 C 44.933594 71.96875 39.894531 67.5 35.171875 62.925781 C 35.351562 62.863281 35.535156 62.800781 35.714844 62.734375 C 35.324219 66.105469 35.066406 69.855469 35.957031 73.167969 C 36.066406 73.582031 35.441406 73.8125 35.328125 73.394531 C 34.40625 69.957031 34.652344 66.113281 35.058594 62.609375 C 35.089844 62.363281 35.429688 62.25 35.605469 62.417969 C 40.234375 66.902344 45.183594 71.347656 51.523438 73.15625 C 51.820312 73.238281 51.910156 73.6875 51.570312 73.796875 C 45.632812 75.695312 38.757812 76.8125 34.851562 82.199219 C 34.664062 82.457031 34.304688 82.269531 34.265625 82.007812 C 33.742188 78.636719 34.65625 75.234375 36.132812 72.210938 C 36.320312 71.824219 36.921875 72.117188 36.734375 72.503906 Z M 36.734375 72.503906 "/></g></g></g><g clip-rule="nonzero" clip-path="url(#b39d98f096)"><g clip-rule="nonzero" clip-path="url(#d13e46b92d)"><g clip-rule="nonzero" clip-path="url(#704b22a20f)"><path style=" stroke:none;fill-rule:nonzero;fill:#3d3aff;fill-opacity:1;" d="M 39.375 68.96875 C 39.324219 70.101562 41.070312 71.253906 41.835938 71.867188 C 43.046875 72.835938 44.347656 73.703125 45.675781 74.507812 C 45.554688 74.691406 45.433594 74.878906 45.3125 75.0625 C 42.449219 73.179688 39.527344 71.378906 37.296875 68.726562 C 37.035156 68.414062 37.5 68.078125 37.785156 68.28125 C 39.347656 69.382812 40.542969 70.882812 41.832031 72.273438 C 41.667969 72.421875 41.503906 72.570312 41.339844 72.71875 C 39.921875 70.667969 38.164062 68.878906 36.855469 66.75 C 36.644531 66.410156 37.035156 66.101562 37.34375 66.304688 C 39.730469 67.882812 41.039062 70.464844 42.996094 72.46875 C 42.835938 72.617188 42.671875 72.765625 42.507812 72.914062 C 40.984375 70.21875 38.417969 68.308594 36.5 65.914062 C 36.253906 65.605469 36.703125 65.25 36.992188 65.46875 C 39.425781 67.335938 41.09375 69.988281 43.523438 71.855469 C 43.359375 72.003906 43.195312 72.152344 43.03125 72.300781 C 41.769531 70.761719 40.105469 69.550781 38.734375 68.105469 C 38.433594 67.789062 38.8125 67.363281 39.171875 67.597656 C 41.5625 69.164062 43.246094 71.558594 45.636719 73.125 C 45.488281 73.296875 45.34375 73.464844 45.199219 73.632812 C 43.625 72.574219 41.960938 71.628906 40.628906 70.257812 C 40.332031 69.953125 40.726562 69.46875 41.0625 69.75 C 42.941406 71.324219 45.113281 72.46875 47.320312 73.515625 C 47.179688 73.679688 47.042969 73.84375 46.902344 74.007812 C 45.863281 72.382812 44.195312 71.460938 42.457031 70.742188 C 42.578125 70.554688 42.699219 70.371094 42.820312 70.1875 C 44.527344 71.597656 46.652344 72.410156 48.726562 73.121094 C 48.628906 73.320312 48.53125 73.519531 48.433594 73.722656 C 47.054688 73.039062 45.640625 72.429688 44.257812 71.75 C 43.925781 71.585938 44.09375 71.027344 44.46875 71.121094 C 46.128906 71.539062 47.738281 72.042969 49.082031 73.144531 C 49.308594 73.328125 49.179688 73.710938 48.894531 73.730469 C 46.25 73.914062 43.609375 73.617188 41.003906 73.1875 C 41.074219 72.976562 41.144531 72.765625 41.214844 72.558594 C 41.789062 72.75 42.394531 72.800781 42.972656 72.996094 C 42.875 73.195312 42.777344 73.394531 42.679688 73.597656 C 40.570312 72.847656 38.710938 71.582031 36.703125 70.617188 C 36.839844 70.453125 36.980469 70.289062 37.121094 70.125 C 37.871094 71.332031 38.828125 72.265625 40.09375 72.933594 C 39.972656 73.117188 39.851562 73.300781 39.730469 73.488281 C 38.6875 72.386719 37.222656 71.902344 35.890625 71.253906 C 36.042969 71.117188 36.195312 70.976562 36.351562 70.839844 C 36.535156 71.226562 36.6875 71.640625 36.914062 72.003906 C 37.226562 72.503906 37.890625 72.789062 38.378906 73.066406 C 38.695312 73.242188 38.558594 73.792969 38.171875 73.695312 C 37.265625 73.46875 36.394531 73.230469 35.644531 72.65625 C 35.789062 72.488281 35.933594 72.316406 36.078125 72.148438 C 37.167969 73.019531 38.429688 73.273438 39.769531 73.496094 C 39.660156 73.671875 39.546875 73.84375 39.433594 74.015625 C 38.082031 72.050781 36.566406 70.179688 35.761719 67.902344 C 35.636719 67.550781 36.144531 67.273438 36.351562 67.597656 C 36.777344 68.273438 37.28125 68.886719 37.878906 69.421875 C 37.714844 69.570312 37.550781 69.71875 37.386719 69.867188 C 36.761719 68.785156 36.332031 67.636719 35.9375 66.453125 C 35.796875 66.039062 36.390625 65.835938 36.5625 66.226562 C 37.207031 67.667969 37.09375 69.15625 36.914062 70.6875 C 36.875 71.015625 36.367188 71.042969 36.269531 70.734375 C 35.886719 69.507812 35.777344 68.238281 35.675781 66.957031 C 35.898438 66.972656 36.117188 66.984375 36.335938 66.996094 C 36.230469 67.992188 36.246094 69.003906 36.648438 69.9375 C 37.195312 71.210938 38.570312 70.902344 39.558594 70.386719 C 39.738281 70.292969 39.992188 70.324219 40.0625 70.550781 C 40.546875 72.113281 43.0625 72.621094 44.492188 72.542969 C 44.921875 72.519531 44.972656 73.1875 44.542969 73.207031 C 42.816406 73.300781 40.019531 72.65625 39.433594 70.777344 C 39.601562 70.828125 39.769531 70.882812 39.9375 70.9375 C 38.828125 71.515625 37.496094 71.890625 36.503906 70.898438 C 35.507812 69.898438 35.542969 68.160156 35.679688 66.867188 C 35.722656 66.488281 36.3125 66.539062 36.34375 66.90625 C 36.4375 68.125 36.53125 69.335938 36.898438 70.507812 C 36.683594 70.523438 36.472656 70.542969 36.257812 70.558594 C 36.425781 69.136719 36.535156 67.792969 35.9375 66.453125 C 36.144531 66.378906 36.355469 66.300781 36.566406 66.226562 C 36.941406 67.351562 37.339844 68.453125 37.933594 69.484375 C 38.117188 69.800781 37.738281 70.199219 37.441406 69.929688 C 36.808594 69.359375 36.257812 68.703125 35.800781 67.980469 C 35.996094 67.878906 36.195312 67.777344 36.390625 67.675781 C 37.175781 69.894531 38.664062 71.714844 39.984375 73.636719 C 40.152344 73.882812 39.933594 74.203125 39.644531 74.152344 C 38.179688 73.910156 36.828125 73.601562 35.644531 72.65625 C 35.304688 72.386719 35.738281 71.886719 36.078125 72.148438 C 36.734375 72.648438 37.511719 72.839844 38.300781 73.039062 C 38.230469 73.246094 38.160156 73.457031 38.089844 73.667969 C 37.558594 73.367188 36.933594 73.066406 36.527344 72.589844 C 36.152344 72.152344 35.96875 71.578125 35.722656 71.066406 C 35.589844 70.792969 35.9375 70.53125 36.183594 70.652344 C 37.566406 71.324219 39.082031 71.835938 40.164062 72.976562 C 40.410156 73.238281 40.164062 73.722656 39.804688 73.53125 C 38.441406 72.816406 37.382812 71.808594 36.574219 70.503906 C 36.402344 70.226562 36.679688 69.863281 36.992188 70.011719 C 39 70.980469 40.863281 72.246094 42.972656 72.992188 C 43.378906 73.140625 43.082031 73.730469 42.679688 73.59375 C 42.105469 73.402344 41.5 73.351562 40.921875 73.15625 C 40.554688 73.035156 40.773438 72.46875 41.132812 72.527344 C 43.679688 72.953125 46.257812 73.242188 48.839844 73.0625 C 48.777344 73.261719 48.714844 73.457031 48.652344 73.652344 C 47.394531 72.625 45.890625 72.167969 44.34375 71.777344 C 44.414062 71.566406 44.480469 71.355469 44.550781 71.148438 C 45.933594 71.828125 47.347656 72.4375 48.726562 73.117188 C 49.125 73.316406 48.832031 73.855469 48.4375 73.71875 C 46.304688 72.988281 44.140625 72.140625 42.386719 70.691406 C 42.082031 70.441406 42.40625 69.996094 42.75 70.136719 C 44.589844 70.902344 46.355469 71.90625 47.453125 73.625 C 47.628906 73.90625 47.339844 74.265625 47.03125 74.117188 C 44.773438 73.046875 42.550781 71.867188 40.628906 70.257812 C 40.773438 70.085938 40.917969 69.917969 41.0625 69.746094 C 42.394531 71.121094 44.0625 72.066406 45.636719 73.125 C 45.996094 73.367188 45.554688 73.867188 45.203125 73.632812 C 42.8125 72.066406 41.128906 69.671875 38.738281 68.105469 C 38.882812 67.9375 39.027344 67.765625 39.171875 67.597656 C 40.582031 69.082031 42.28125 70.332031 43.582031 71.917969 C 43.835938 72.222656 43.378906 72.582031 43.089844 72.363281 C 40.660156 70.496094 38.992188 67.84375 36.558594 65.976562 C 36.722656 65.828125 36.886719 65.679688 37.050781 65.53125 C 38.96875 67.925781 41.535156 69.832031 43.054688 72.53125 C 43.230469 72.839844 42.847656 73.265625 42.566406 72.976562 C 40.605469 70.976562 39.292969 68.386719 36.910156 66.8125 C 37.074219 66.664062 37.238281 66.515625 37.402344 66.367188 C 38.714844 68.496094 40.472656 70.285156 41.890625 72.335938 C 42.101562 72.640625 41.664062 73.066406 41.398438 72.78125 C 40.109375 71.390625 38.914062 69.890625 37.355469 68.789062 C 37.515625 68.640625 37.679688 68.492188 37.84375 68.34375 C 40.03125 70.945312 42.9375 72.707031 45.746094 74.554688 C 46.0625 74.761719 45.707031 75.304688 45.382812 75.109375 C 43.871094 74.191406 42.398438 73.1875 41.027344 72.070312 C 40.203125 71.398438 38.652344 70.242188 38.710938 69.019531 C 38.726562 68.597656 39.394531 68.539062 39.375 68.96875 Z M 39.375 68.96875 "/></g></g></g><g clip-rule="nonzero" clip-path="url(#8034c6fc14)"><g clip-rule="nonzero" clip-path="url(#1857f5f8e6)"><g clip-rule="nonzero" clip-path="url(#f46788c6ea)"><path style=" stroke:none;fill-rule:nonzero;fill:#3d3aff;fill-opacity:1;" d="M 40.699219 74.359375 C 39.238281 75.058594 37.71875 75.449219 36.109375 75.589844 C 36.210938 75.472656 36.316406 75.351562 36.417969 75.234375 C 36.425781 75.328125 36.433594 75.421875 36.4375 75.519531 C 36.347656 75.417969 36.257812 75.316406 36.167969 75.214844 C 37.457031 75.59375 38.976562 75.882812 40.222656 75.21875 C 40.261719 75.421875 40.304688 75.621094 40.347656 75.824219 C 38.515625 75.464844 37.082031 76.816406 35.96875 78.089844 C 35.796875 77.945312 35.628906 77.800781 35.460938 77.65625 C 35.898438 77.242188 36.476562 76.960938 37.070312 76.855469 C 37.085938 77.078125 37.105469 77.300781 37.121094 77.523438 C 35.515625 77.695312 34.074219 78.511719 33.292969 79.953125 C 33.183594 79.792969 33.074219 79.636719 32.964844 79.476562 C 34.609375 79.296875 35.921875 78.398438 37.234375 77.464844 C 37.308594 77.667969 37.378906 77.871094 37.453125 78.070312 C 36.238281 78.167969 35.257812 78.355469 34.160156 78.890625 C 34.113281 78.675781 34.066406 78.460938 34.019531 78.246094 C 35.664062 78.097656 37.066406 77.636719 38.3125 76.519531 C 38.355469 76.71875 38.394531 76.921875 38.4375 77.121094 C 36.835938 77.019531 35.785156 77.765625 34.890625 79.035156 C 34.800781 78.851562 34.707031 78.667969 34.613281 78.484375 C 37.9375 77.875 41.0625 76.046875 43.558594 73.8125 C 43.660156 74.007812 43.761719 74.203125 43.863281 74.398438 C 42.152344 74.824219 40.441406 75.234375 38.679688 75.390625 C 38.3125 75.421875 38.167969 74.832031 38.539062 74.742188 C 40.132812 74.367188 41.769531 74.214844 43.351562 73.792969 C 43.367188 74.007812 43.382812 74.222656 43.398438 74.433594 C 41.117188 73.816406 38.746094 73.972656 36.847656 75.488281 C 36.804688 75.285156 36.761719 75.085938 36.71875 74.886719 C 40.054688 75.75 43.566406 74.949219 46.820312 74.097656 C 46.867188 74.3125 46.914062 74.527344 46.960938 74.742188 C 44.949219 74.632812 42.933594 74.753906 40.917969 74.640625 C 40.503906 74.617188 40.425781 74.007812 40.867188 73.976562 C 41.152344 73.953125 41.4375 73.929688 41.722656 73.90625 C 42.160156 73.875 42.195312 74.503906 41.777344 74.574219 C 38.539062 75.113281 33.722656 76.375 33.058594 80.179688 C 32.882812 80.066406 32.710938 79.953125 32.539062 79.84375 C 34.738281 78.25 35.777344 74.882812 36.371094 72.378906 C 36.914062 70.085938 37.585938 65.863281 35.070312 64.421875 C 35.222656 64.285156 35.375 64.144531 35.527344 64.007812 C 36.113281 66.207031 38.375 67.558594 39.648438 69.351562 C 39.792969 69.558594 39.648438 69.855469 39.398438 69.875 C 39.019531 69.90625 38.636719 69.933594 38.257812 69.964844 C 37.828125 70 37.773438 69.332031 38.203125 69.296875 C 38.585938 69.269531 38.964844 69.238281 39.347656 69.210938 C 39.261719 69.382812 39.179688 69.558594 39.097656 69.734375 C 37.792969 67.890625 35.507812 66.511719 34.898438 64.234375 C 34.832031 63.976562 35.082031 63.660156 35.359375 63.820312 C 38.035156 65.351562 37.65625 69.300781 37.167969 71.855469 C 36.820312 73.65625 36.214844 75.429688 35.410156 77.078125 C 34.8125 78.300781 34.042969 79.582031 32.917969 80.390625 C 32.675781 80.566406 32.351562 80.335938 32.402344 80.050781 C 33.128906 75.90625 38.175781 74.5 41.722656 73.90625 C 41.742188 74.128906 41.757812 74.351562 41.777344 74.574219 C 41.492188 74.597656 41.207031 74.617188 40.917969 74.640625 C 40.902344 74.417969 40.886719 74.195312 40.867188 73.972656 C 42.878906 74.085938 44.894531 73.964844 46.910156 74.078125 C 47.25 74.097656 47.449219 74.621094 47.046875 74.722656 C 43.679688 75.609375 40.046875 76.4375 36.589844 75.542969 C 36.304688 75.464844 36.234375 75.121094 36.464844 74.9375 C 38.492188 73.324219 41.085938 73.113281 43.527344 73.777344 C 43.816406 73.855469 43.925781 74.328125 43.578125 74.421875 C 41.996094 74.839844 40.359375 74.996094 38.765625 75.371094 C 38.722656 75.15625 38.675781 74.941406 38.628906 74.722656 C 40.328125 74.570312 41.980469 74.179688 43.636719 73.769531 C 44.015625 73.675781 44.222656 74.105469 43.941406 74.359375 C 41.347656 76.679688 38.109375 78.519531 34.664062 79.152344 C 34.347656 79.207031 34.238281 78.808594 34.382812 78.601562 C 35.433594 77.109375 36.71875 76.347656 38.566406 76.464844 C 38.894531 76.484375 38.875 76.902344 38.691406 77.066406 C 37.363281 78.257812 35.824219 78.753906 34.070312 78.910156 C 33.671875 78.945312 33.609375 78.417969 33.929688 78.261719 C 35.089844 77.699219 36.125 77.503906 37.402344 77.40625 C 37.734375 77.378906 37.886719 77.820312 37.617188 78.011719 C 36.199219 79.019531 34.785156 79.949219 33.019531 80.140625 C 32.773438 80.167969 32.570312 79.882812 32.691406 79.664062 C 33.585938 78.007812 35.222656 77.050781 37.070312 76.855469 C 37.507812 76.808594 37.539062 77.449219 37.121094 77.523438 C 36.71875 77.59375 36.261719 77.808594 35.96875 78.089844 C 35.660156 78.378906 35.167969 77.984375 35.460938 77.65625 C 36.746094 76.1875 38.390625 74.757812 40.476562 75.164062 C 40.734375 75.214844 40.871094 75.625 40.601562 75.769531 C 39.183594 76.527344 37.53125 76.308594 36.042969 75.871094 C 35.898438 75.828125 35.785156 75.726562 35.773438 75.570312 C 35.765625 75.472656 35.757812 75.378906 35.75 75.28125 C 35.738281 75.101562 35.875 74.941406 36.058594 74.925781 C 37.613281 74.785156 39.0625 74.402344 40.472656 73.730469 C 40.859375 73.542969 41.082031 74.175781 40.699219 74.359375 Z M 40.699219 74.359375 "/></g></g></g><g clip-rule="nonzero" clip-path="url(#d09d44c4eb)"><g clip-rule="nonzero" clip-path="url(#a85a05ce4b)"><g clip-rule="nonzero" clip-path="url(#7f264d5ebd)"><path style=" stroke:none;fill-rule:nonzero;fill:#3d3aff;fill-opacity:1;" d="M 35.660156 77.828125 C 34.644531 78.777344 34.238281 80.058594 34.316406 81.429688 C 34.140625 81.347656 33.964844 81.265625 33.792969 81.179688 C 34.671875 80.644531 35.128906 80.105469 35.523438 79.15625 C 35.726562 79.253906 35.925781 79.347656 36.125 79.445312 C 36.042969 79.644531 35.933594 79.941406 35.695312 79.996094 C 35.527344 80.035156 35.324219 79.984375 35.269531 79.796875 C 35.089844 79.195312 35.386719 78.511719 35.378906 77.898438 C 35.375 77.46875 36.039062 77.414062 36.046875 77.847656 C 36.054688 78.363281 35.753906 79.085938 35.898438 79.566406 C 35.753906 79.5 35.613281 79.433594 35.46875 79.367188 C 35.375 79.386719 35.503906 79.199219 35.523438 79.15625 C 35.691406 78.757812 36.289062 79.050781 36.125 79.445312 C 35.6875 80.5 35.148438 81.136719 34.171875 81.730469 C 33.964844 81.859375 33.664062 81.746094 33.648438 81.480469 C 33.5625 79.949219 34.011719 78.457031 35.152344 77.394531 C 35.464844 77.101562 35.972656 77.53125 35.660156 77.828125 Z M 35.660156 77.828125 "/></g></g></g><g clip-rule="nonzero" clip-path="url(#8110993d07)"><g clip-rule="nonzero" clip-path="url(#1e0b37ad2e)"><g clip-rule="nonzero" clip-path="url(#401d8f61b0)"><path style=" stroke:none;fill-rule:nonzero;fill:#3d3aff;fill-opacity:1;" d="M 36.699219 72.097656 C 34.160156 72.238281 31.863281 70.742188 29.878906 69.328125 C 27.769531 67.824219 25.769531 65.707031 23.316406 64.765625 C 22.914062 64.613281 23.207031 64.011719 23.609375 64.164062 C 25.71875 64.976562 27.5 66.699219 29.273438 68.050781 C 31.34375 69.625 33.894531 71.585938 36.648438 71.433594 C 37.078125 71.40625 37.128906 72.074219 36.699219 72.097656 Z M 36.699219 72.097656 "/></g></g></g><g clip-rule="nonzero" clip-path="url(#ab96080a81)"><g clip-rule="nonzero" clip-path="url(#2c1b3725ee)"><g clip-rule="nonzero" clip-path="url(#cddfcd1ca5)"><path style=" stroke:none;fill-rule:nonzero;fill:#3d3aff;fill-opacity:1;" d="M 34.785156 70.800781 C 30.640625 69.796875 26.742188 67.792969 23.152344 65.535156 C 19.414062 63.183594 15.828125 60.351562 13.101562 56.84375 C 10.394531 53.363281 9.476562 48.765625 9.140625 44.453125 C 9.011719 42.824219 9.074219 41.441406 9.609375 39.890625 C 10.144531 38.332031 10.90625 36.808594 11.820312 35.433594 C 12.117188 34.980469 13.511719 32.832031 14.191406 33.996094 C 14.40625 34.363281 13.859375 34.746094 13.640625 34.375 C 13.617188 34.335938 13.621094 34.34375 13.433594 34.488281 C 13.230469 34.644531 13.0625 34.863281 12.902344 35.0625 C 12.386719 35.699219 11.972656 36.417969 11.578125 37.136719 C 10.785156 38.589844 10.054688 40.183594 9.777344 41.824219 C 9.632812 42.660156 9.75 43.566406 9.808594 44.402344 C 9.894531 45.664062 10.074219 46.917969 10.300781 48.160156 C 10.71875 50.464844 11.347656 52.902344 12.578125 54.921875 C 14.90625 58.742188 18.648438 61.71875 22.308594 64.191406 C 26.011719 66.699219 30.152344 68.894531 34.496094 70.039062 C 34.636719 70.074219 34.773438 70.109375 34.910156 70.144531 C 35.328125 70.242188 35.203125 70.902344 34.785156 70.800781 Z M 34.785156 70.800781 "/></g></g></g><path style=" stroke:none;fill-rule:evenodd;fill:#2684ff;fill-opacity:1;" d="M 27.996094 54.558594 L 19.734375 54.558594 C 17.976562 54.558594 16.578125 53.160156 16.578125 51.402344 L 16.578125 24.207031 C 16.578125 22.449219 17.976562 21.050781 19.734375 21.050781 L 27.996094 21.050781 C 29.722656 21.050781 31.121094 22.449219 31.121094 24.207031 L 31.121094 51.402344 C 31.121094 53.160156 29.722656 54.558594 27.996094 54.558594 Z M 19.734375 23.003906 C 19.050781 23.003906 18.53125 23.523438 18.53125 24.207031 L 18.53125 51.402344 C 18.53125 52.085938 19.050781 52.609375 19.734375 52.609375 L 27.996094 52.609375 C 28.648438 52.609375 29.203125 52.085938 29.203125 51.402344 L 29.203125 24.207031 C 29.203125 23.523438 28.648438 23.003906 27.996094 23.003906 Z M 19.734375 23.003906 "/><g clip-rule="nonzero" clip-path="url(#705a473309)"><path style=" stroke:none;fill-rule:evenodd;fill:#2684ff;fill-opacity:1;" d="M 46.671875 39.921875 L 38.375 39.921875 C 36.683594 39.921875 35.253906 38.519531 35.253906 36.828125 L 35.253906 24.207031 C 35.253906 22.449219 36.683594 21.050781 38.375 21.050781 L 46.671875 21.050781 C 48.394531 21.050781 49.792969 22.449219 49.792969 24.207031 L 49.792969 36.828125 C 49.792969 38.519531 48.394531 39.921875 46.671875 39.921875 Z M 38.375 23.003906 C 37.757812 23.003906 37.203125 23.554688 37.203125 24.207031 L 37.203125 36.828125 C 37.203125 37.449219 37.757812 37.96875 38.375 37.96875 L 46.671875 37.96875 C 47.320312 37.96875 47.84375 37.449219 47.84375 36.828125 L 47.84375 24.207031 C 47.84375 23.554688 47.320312 23.003906 46.671875 23.003906 Z M 38.375 23.003906 "/></g><g clip-rule="nonzero" clip-path="url(#0b6a8c06bc)"><path style=" stroke:none;fill-rule:evenodd;fill:#2684ff;fill-opacity:1;" d="M 8.609375 65.101562 C 5.0625 65.101562 2.199219 62.238281 2.199219 58.691406 L 2.199219 16.007812 C 2.199219 12.460938 5.0625 9.601562 8.609375 9.601562 L 51.289062 9.601562 C 54.835938 9.601562 57.699219 12.460938 57.699219 16.007812 L 57.699219 58.691406 C 57.699219 62.238281 54.835938 65.101562 51.289062 65.101562 Z M 8.609375 11.550781 C 6.136719 11.550781 4.152344 13.535156 4.152344 16.007812 L 4.152344 58.691406 C 4.152344 61.164062 6.136719 63.148438 8.609375 63.148438 L 51.289062 63.148438 C 53.761719 63.148438 55.746094 61.164062 55.746094 58.691406 L 55.746094 16.007812 C 55.746094 13.535156 53.761719 11.550781 51.289062 11.550781 Z M 8.609375 11.550781 "/></g><g clip-rule="nonzero" clip-path="url(#643c72091e)"><path style=" stroke:none;fill-rule:evenodd;fill:#2684ff;fill-opacity:1;" d="M 3.761719 26.550781 L 3.175781 26.550781 C 2.621094 26.550781 2.199219 26.09375 2.199219 25.574219 L 2.199219 15.976562 C 2.199219 12.460938 5.0625 9.601562 8.574219 9.601562 L 14.042969 9.601562 C 14.433594 9.601562 14.789062 9.828125 14.917969 10.21875 C 15.472656 11.585938 15.765625 13.046875 15.765625 14.578125 C 15.765625 21.179688 10.367188 26.550781 3.761719 26.550781 Z M 8.574219 11.550781 C 6.136719 11.550781 4.152344 13.535156 4.152344 15.976562 L 4.152344 24.566406 C 9.488281 24.371094 13.8125 19.945312 13.8125 14.578125 C 13.8125 13.503906 13.652344 12.496094 13.324219 11.550781 Z M 8.574219 11.550781 "/></g><path style=" stroke:none;fill-rule:evenodd;fill:#0052cc;fill-opacity:1;" d="M 64.894531 82.414062 L 56.628906 82.414062 C 54.871094 82.414062 53.472656 81.015625 53.472656 79.257812 L 53.472656 52.0625 C 53.472656 50.304688 54.871094 48.90625 56.628906 48.90625 L 64.894531 48.90625 C 66.617188 48.90625 68.015625 50.304688 68.015625 52.0625 L 68.015625 79.257812 C 68.015625 81.015625 66.617188 82.414062 64.894531 82.414062 Z M 56.628906 50.855469 C 55.945312 50.855469 55.425781 51.378906 55.425781 52.0625 L 55.425781 79.257812 C 55.425781 79.941406 55.945312 80.460938 56.628906 80.460938 L 64.894531 80.460938 C 65.542969 80.460938 66.097656 79.941406 66.097656 79.257812 L 66.097656 52.0625 C 66.097656 51.378906 65.542969 50.855469 64.894531 50.855469 Z M 56.628906 50.855469 "/><path style=" stroke:none;fill-rule:evenodd;fill:#0052cc;fill-opacity:1;" d="M 83.566406 67.773438 L 75.269531 67.773438 C 73.578125 67.773438 72.148438 66.375 72.148438 64.683594 L 72.148438 52.0625 C 72.148438 50.304688 73.578125 48.90625 75.269531 48.90625 L 83.566406 48.90625 C 85.289062 48.90625 86.691406 50.304688 86.691406 52.0625 L 86.691406 64.683594 C 86.691406 66.375 85.289062 67.773438 83.566406 67.773438 Z M 75.269531 50.855469 C 74.652344 50.855469 74.097656 51.410156 74.097656 52.0625 L 74.097656 64.683594 C 74.097656 65.300781 74.652344 65.820312 75.269531 65.820312 L 83.566406 65.820312 C 84.21875 65.820312 84.738281 65.300781 84.738281 64.683594 L 84.738281 52.0625 C 84.738281 51.410156 84.21875 50.855469 83.566406 50.855469 Z M 75.269531 50.855469 "/><g clip-rule="nonzero" clip-path="url(#db5f088c5e)"><path style=" stroke:none;fill-rule:evenodd;fill:#0052cc;fill-opacity:1;" d="M 45.503906 92.953125 C 41.957031 92.953125 39.09375 90.089844 39.09375 86.542969 L 39.09375 43.863281 C 39.09375 40.316406 41.957031 37.453125 45.503906 37.453125 L 88.1875 37.453125 C 91.730469 37.453125 94.59375 40.316406 94.59375 43.863281 L 94.59375 86.542969 C 94.59375 90.089844 91.730469 92.953125 88.1875 92.953125 Z M 45.503906 39.40625 C 43.03125 39.40625 41.046875 41.390625 41.046875 43.863281 L 41.046875 86.542969 C 41.046875 89.015625 43.03125 91 45.503906 91 L 88.1875 91 C 90.660156 91 92.644531 89.015625 92.644531 86.542969 L 92.644531 43.863281 C 92.644531 41.390625 90.660156 39.40625 88.1875 39.40625 Z M 45.503906 39.40625 "/></g><g clip-rule="nonzero" clip-path="url(#108b78d4a9)"><path style=" stroke:none;fill-rule:evenodd;fill:#0052cc;fill-opacity:1;" d="M 40.65625 54.402344 L 40.070312 54.402344 C 39.519531 54.402344 39.09375 53.949219 39.09375 53.425781 L 39.09375 43.828125 C 39.09375 40.316406 41.957031 37.453125 45.472656 37.453125 L 50.9375 37.453125 C 51.328125 37.453125 51.683594 37.679688 51.816406 38.070312 C 52.367188 39.4375 52.660156 40.902344 52.660156 42.429688 C 52.660156 49.035156 47.261719 54.402344 40.65625 54.402344 Z M 45.472656 39.40625 C 43.03125 39.40625 41.046875 41.390625 41.046875 43.828125 L 41.046875 52.417969 C 46.382812 52.222656 50.707031 47.800781 50.707031 42.429688 C 50.707031 41.359375 50.546875 40.347656 50.222656 39.40625 Z M 45.472656 39.40625 "/></g><g clip-rule="nonzero" clip-path="url(#8a8a59cb86)"><path style=" stroke:none;fill-rule:evenodd;fill:#2684ff;fill-opacity:1;" d="M 27.996094 54.558594 L 19.734375 54.558594 C 17.976562 54.558594 16.578125 53.160156 16.578125 51.402344 L 16.578125 24.207031 C 16.578125 22.449219 17.976562 21.050781 19.734375 21.050781 L 27.996094 21.050781 C 29.722656 21.050781 31.121094 22.449219 31.121094 24.207031 L 31.121094 51.402344 C 31.121094 53.160156 29.722656 54.558594 27.996094 54.558594 Z M 19.734375 23.003906 C 19.050781 23.003906 18.53125 23.523438 18.53125 24.207031 L 18.53125 51.402344 C 18.53125 52.085938 19.050781 52.609375 19.734375 52.609375 L 27.996094 52.609375 C 28.648438 52.609375 29.203125 52.085938 29.203125 51.402344 L 29.203125 24.207031 C 29.203125 23.523438 28.648438 23.003906 27.996094 23.003906 Z M 19.734375 23.003906 "/></g><g clip-rule="nonzero" clip-path="url(#4309b96ae8)"><path style=" stroke:none;fill-rule:evenodd;fill:#2684ff;fill-opacity:1;" d="M 46.671875 39.921875 L 38.375 39.921875 C 36.683594 39.921875 35.253906 38.519531 35.253906 36.828125 L 35.253906 24.207031 C 35.253906 22.449219 36.683594 21.050781 38.375 21.050781 L 46.671875 21.050781 C 48.394531 21.050781 49.792969 22.449219 49.792969 24.207031 L 49.792969 36.828125 C 49.792969 38.519531 48.394531 39.921875 46.671875 39.921875 Z M 38.375 23.003906 C 37.757812 23.003906 37.203125 23.554688 37.203125 24.207031 L 37.203125 36.828125 C 37.203125 37.449219 37.757812 37.96875 38.375 37.96875 L 46.671875 37.96875 C 47.320312 37.96875 47.84375 37.449219 47.84375 36.828125 L 47.84375 24.207031 C 47.84375 23.554688 47.320312 23.003906 46.671875 23.003906 Z M 38.375 23.003906 "/></g><g clip-rule="nonzero" clip-path="url(#5a95fefa35)"><path style=" stroke:none;fill-rule:evenodd;fill:#2684ff;fill-opacity:1;" d="M 8.609375 65.101562 C 5.0625 65.101562 2.199219 62.238281 2.199219 58.691406 L 2.199219 16.007812 C 2.199219 12.460938 5.0625 9.601562 8.609375 9.601562 L 51.289062 9.601562 C 54.835938 9.601562 57.699219 12.460938 57.699219 16.007812 L 57.699219 58.691406 C 57.699219 62.238281 54.835938 65.101562 51.289062 65.101562 Z M 8.609375 11.550781 C 6.136719 11.550781 4.152344 13.535156 4.152344 16.007812 L 4.152344 58.691406 C 4.152344 61.164062 6.136719 63.148438 8.609375 63.148438 L 51.289062 63.148438 C 53.761719 63.148438 55.746094 61.164062 55.746094 58.691406 L 55.746094 16.007812 C 55.746094 13.535156 53.761719 11.550781 51.289062 11.550781 Z M 8.609375 11.550781 "/></g><g clip-rule="nonzero" clip-path="url(#2a6a36467a)"><path style=" stroke:none;fill-rule:evenodd;fill:#2684ff;fill-opacity:1;" d="M 3.761719 26.550781 L 3.175781 26.550781 C 2.621094 26.550781 2.199219 26.09375 2.199219 25.574219 L 2.199219 15.976562 C 2.199219 12.460938 5.0625 9.601562 8.574219 9.601562 L 14.042969 9.601562 C 14.433594 9.601562 14.789062 9.828125 14.917969 10.21875 C 15.472656 11.585938 15.765625 13.046875 15.765625 14.578125 C 15.765625 21.179688 10.367188 26.550781 3.761719 26.550781 Z M 8.574219 11.550781 C 6.136719 11.550781 4.152344 13.535156 4.152344 15.976562 L 4.152344 24.566406 C 9.488281 24.371094 13.8125 19.945312 13.8125 14.578125 C 13.8125 13.503906 13.652344 12.496094 13.324219 11.550781 Z M 8.574219 11.550781 "/></g></g></svg>